<svg xmlns="http://www.w3.org/2000/svg" xml:space="preserve" style="fill-rule:evenodd;clip-rule:evenodd;stroke-linejoin:round;stroke-miterlimit:2" viewBox="0 0 1024 1024"><path d="M1024 240.736c0 126.628-102.806 229.434-229.434 229.434H229.434C102.806 470.17 0 367.364 0 240.736S102.806 11.302 229.434 11.302h565.132C921.194 11.302 1024 114.108 1024 240.736Zm-61.719 0c0-92.565-75.151-167.715-167.715-167.715H229.434c-92.564 0-167.715 75.15-167.715 167.715 0 92.564 75.151 167.715 167.715 167.715h565.132c92.564 0 167.715-75.151 167.715-167.715Z"/><path d="M229.434 122.167c65.44 0 118.569 53.129 118.569 118.569 0 65.439-53.129 118.569-118.569 118.569s-118.569-53.13-118.569-118.569c0-65.44 53.129-118.569 118.569-118.569ZM794.566 1012.7H229.434C102.806 1012.7 0 909.892 0 783.264S102.806 553.83 229.434 553.83h565.132C921.194 553.83 1024 656.636 1024 783.264S921.194 1012.7 794.566 1012.7Zm0-71.815c86.993 0 157.621-70.627 157.621-157.621 0-86.993-70.628-157.621-157.621-157.621-86.993 0-157.621 70.628-157.621 157.621 0 86.994 70.628 157.621 157.621 157.621Z"/></svg>